<?xml version="1.0" encoding="UTF-8"?>
<svg width="155px" height="33px" viewBox="0 0 155 33" version="1.1" xmlns="http://www.w3.org/2000/svg" xmlns:xlink="http://www.w3.org/1999/xlink">
    <!-- Generator: sketchtool 54.1 (76490) - https://sketchapp.com -->
    <title>0AF55B84-F0BC-404C-8DB2-06FC0DDFC649</title>
    <desc>Created with sketchtool.</desc>
    <g id="approved-✅" stroke="none" stroke-width="1" fill="none" fill-rule="evenodd">
        <g id="Compare-Player4" transform="translate(-205.000000, -94.000000)" fill="#FFFFFF">
            <g id="Group-22" transform="translate(-2.000000, -1.000000)">
                <g id="Group-9-Copy" transform="translate(0.000000, 71.000000)">
                    <path d="M228.30303,50.3824117 C232.040423,50.3824117 233.909091,48.5503181 233.909091,44.8860759 L233.909091,36.0919387 C233.909091,32.4276965 232.040423,30.5956029 228.30303,30.5956029 L218.212121,30.5956029 C215.222207,30.5956029 213.727273,32.4276965 213.727273,36.0919387 L213.727273,44.8860759 C213.727273,48.5503181 215.595941,50.3824117 219.333333,50.3824117 L228.30303,50.3824117 Z M229.424242,56.9780147 L218.212121,57 L218.212121,56.9780147 C210.737336,56.9780147 207,53.3138274 207,45.9853431 L207,34.9926716 C207,27.6641872 210.737336,24 218.212121,24 L229.424242,24 C236.899027,24 240.636364,27.6641872 240.636364,34.9926716 L240.636364,45.9853431 C240.636364,53.2991705 236.899027,56.9633577 229.424242,56.9780147 Z M258.575758,43.7868088 C251.100973,43.7868088 247.363636,40.4890403 247.363636,33.8934044 C247.363636,27.2977685 251.100973,24 258.575758,24 L281,24 L281,30.5956029 L259.69697,30.5956029 C255.959577,30.5956029 254.090909,31.6948591 254.090909,33.8934044 C254.090909,36.0919497 255.959577,37.1912059 259.69697,37.1912059 L269.787879,37.1912059 C277.262664,37.1912059 281,40.4889744 281,47.0846103 C281,53.6802462 277.262664,56.9780147 269.787879,56.9780147 L247.363636,56.9780147 L247.363636,50.3824117 L268.666667,50.3824117 C272.404059,50.3824117 274.272727,49.2831556 274.272727,47.0846103 C274.272727,44.886065 272.404059,43.7868088 268.666667,43.7868088 L258.575758,43.7868088 Z M287,30.6 L287,24 L309.666667,24 C317.22226,24 321,27.66663 321,35 L321,46 C321,53.33337 317.22226,57 309.666667,57 L287,57 L287,50.4 L308.714667,50.4 C312.341351,50.4 314.154667,48.6620174 314.154667,45.186 L314.154667,35.792 C314.154667,32.3306494 312.348907,30.6 308.737333,30.6 L287,30.6 Z M350.666667,24 C358.22226,24 362,27.299967 362,33.9 C362,37.566685 360.866678,39.766663 358.6,40.5 C360.866678,41.233337 362,43.433315 362,47.1 C362,53.700033 358.22226,57 350.666667,57 L328,57 L328,24 L350.666667,24 Z M350.666667,43.8 L334.8,43.8 L334.8,50.4 L349.533333,50.4 C353.31113,50.4 355.2,49.300011 355.2,47.1 C355.2,44.899989 353.688904,43.8 350.666667,43.8 Z M350.666667,37.2 C353.688904,37.2 355.2,36.100011 355.2,33.9 C355.2,31.699989 353.31113,30.6 349.533333,30.6 L334.8,30.6 L334.8,37.2 L350.666667,37.2 Z" id="Combined-Shape"></path>
                </g>
            </g>
        </g>
    </g>
</svg>