<?xml version="1.0" encoding="UTF-8"?>
<svg width="204px" height="77px" viewBox="0 0 204 77" version="1.1" xmlns="http://www.w3.org/2000/svg" xmlns:xlink="http://www.w3.org/1999/xlink">
    <!-- Generator: sketchtool 54.1 (76490) - https://sketchapp.com -->
    <title>CF1E9DB5-7575-4A5C-80C5-62C964F71732</title>
    <desc>Created with sketchtool.</desc>
    <g id="approved-✅" stroke="none" stroke-width="1" fill="none" fill-rule="evenodd">
        <g id="Home-Page-V2" transform="translate(-221.000000, -5071.000000)" fill="#FFFFFF">
            <g id="Group-3" transform="translate(0.000000, 5014.000000)">
                <g id="Group-7">
                    <g id="Group-9" transform="translate(221.000000, 53.000000)">
                        <g id="Group-6" transform="translate(0.000000, 4.000000)">
                            <g id="Group-2">
                                <path d="M29.2066552,34.765411 C34.1028518,34.765411 36.5509134,32.3511705 36.5509134,27.522617 L36.5509134,15.9341467 C36.5509134,11.1055932 34.1028518,8.69135274 29.2066552,8.69135274 L15.9869905,8.69135274 C12.0700332,8.69135274 10.1115839,11.1055932 10.1115839,15.9341467 L10.1115839,27.522617 C10.1115839,32.3511705 12.5596455,34.765411 17.4558421,34.765411 L29.2066552,34.765411 Z M30.6755069,43.4567637 L15.9869905,43.4857349 L15.9869905,43.4567637 C6.19459728,43.4567637 1.29847412,38.6282827 1.29847412,28.9711758 L1.29847412,14.4855879 C1.29847412,4.82848101 6.19459728,0 15.9869905,0 L30.6755069,0 C40.4679001,0 45.3640232,4.82848101 45.3640232,14.4855879 L45.3640232,28.9711758 C45.3640232,38.6089685 40.4679001,43.4374495 30.6755069,43.4567637 Z M68.8656494,26.0740582 C59.0732562,26.0740582 54.177133,21.7284253 54.177133,13.0370291 C54.177133,4.34563291 59.0732562,0 68.8656494,0 L98.2426821,0 L98.2426821,8.69135274 L70.3345011,8.69135274 C65.4383044,8.69135274 62.9902429,10.139897 62.9902429,13.0370291 C62.9902429,15.9341612 65.4383044,17.3827055 70.3345011,17.3827055 L83.5541658,17.3827055 C93.346559,17.3827055 98.2426821,21.7283384 98.2426821,30.4197346 C98.2426821,39.1111308 93.346559,43.4567637 83.5541658,43.4567637 L54.177133,43.4567637 L54.177133,34.765411 L82.0853141,34.765411 C86.9815107,34.765411 89.4295723,33.3168667 89.4295723,30.4197346 C89.4295723,27.5226025 86.9815107,26.0740582 82.0853141,26.0740582 L68.8656494,26.0740582 Z M107.055792,8.69135274 L107.055792,0 L136.432825,0 C146.225218,0 151.121341,4.82848101 151.121341,14.4855879 L151.121341,28.9711758 C151.121341,38.6282827 146.225218,43.4567637 136.432825,43.4567637 L107.055792,43.4567637 L107.055792,34.765411 L135.198989,34.765411 C139.899338,34.765411 142.249477,32.476711 142.249477,27.8992423 L142.249477,15.5285502 C142.249477,10.9703958 139.90913,8.69135274 135.228366,8.69135274 L107.055792,8.69135274 Z M189.311484,0 C199.103877,0 204,4.34563291 204,13.0370291 C204,17.8655826 202.531163,20.7626712 199.593445,21.7283819 C202.531163,22.6940925 204,25.5911811 204,30.4197346 C204,39.1111308 199.103877,43.4567637 189.311484,43.4567637 L159.934451,43.4567637 L159.934451,0 L189.311484,0 Z M189.311484,26.0740582 L168.747561,26.0740582 L168.747561,34.765411 L187.842632,34.765411 C192.738829,34.765411 195.18689,33.3168667 195.18689,30.4197346 C195.18689,27.5226025 193.228441,26.0740582 189.311484,26.0740582 Z M189.311484,17.3827055 C193.228441,17.3827055 195.18689,15.9341612 195.18689,13.0370291 C195.18689,10.139897 192.738829,8.69135274 187.842632,8.69135274 L168.747561,8.69135274 L168.747561,17.3827055 L189.311484,17.3827055 Z M4.01317827,72.1191265 C1.33771271,72.1191265 0,70.9009506 0,68.4645624 C0,66.0281741 1.33771271,64.8099982 4.01317827,64.8099982 L12.0395348,64.8099982 L12.0395348,67.2463743 L4.41449609,67.2463743 C3.07676331,67.2463743 2.40790696,67.6524329 2.40790696,68.4645624 C2.40790696,69.2766918 3.07676331,69.6827504 4.41449609,69.6827504 L8.02635653,69.6827504 C10.7018221,69.6827504 12.0395348,70.9009263 12.0395348,73.3373146 C12.0395348,75.7737029 10.7018221,76.9918787 8.02635653,76.9918787 L0,76.9918787 L0,74.5555026 L7.6250387,74.5555026 C8.96277148,74.5555026 9.63162784,74.149444 9.63162784,73.3373146 C9.63162784,72.5251851 8.96277148,72.1191265 7.6250387,72.1191265 L4.01317827,72.1191265 Z M22.0724805,69.6827504 C23.4102132,69.6827504 24.0790696,69.2766918 24.0790696,68.4645624 C24.0790696,67.6524329 23.4102132,67.2463743 22.0724805,67.2463743 L16.8553487,67.2463743 L16.8553487,69.6827504 L22.0724805,69.6827504 Z M16.8553487,76.9918787 L14.4474418,76.9918787 L14.4474418,64.8099982 L22.4737983,64.8099982 C25.1492638,64.8099982 26.4869766,66.0281741 26.4869766,68.4645624 C26.4869766,70.9009506 25.1492638,72.1191265 22.4737983,72.1191265 L16.8553487,72.1191265 L16.8553487,76.9918787 Z M36.5199222,74.5555026 C37.857655,74.5555026 38.5265113,73.8787383 38.5265113,72.5251892 L38.5265113,69.2766877 C38.5265113,67.9231387 37.857655,67.2463743 36.5199222,67.2463743 L32.9080618,67.2463743 C31.8378756,67.2463743 31.3027905,67.9231387 31.3027905,69.2766877 L31.3027905,72.5251892 C31.3027905,73.8787383 31.9716468,74.5555026 33.3093796,74.5555026 L36.5199222,74.5555026 Z M36.92124,76.9918787 L32.9080618,77 L32.9080618,76.9918787 C30.2325962,76.9918787 28.8948835,75.63835 28.8948835,72.9312519 L28.8948835,68.870625 C28.8948835,66.1635269 30.2325962,64.8099982 32.9080618,64.8099982 L36.92124,64.8099982 C39.5967056,64.8099982 40.9344183,66.1635269 40.9344183,68.870625 L40.9344183,72.9312519 C40.9344183,75.6329358 39.5967056,76.9864646 36.92124,76.9918787 Z M50.967364,69.6827504 C52.3050967,69.6827504 52.9739531,69.2766918 52.9739531,68.4645624 C52.9739531,67.6524329 52.3050967,67.2463743 50.967364,67.2463743 L45.7502322,67.2463743 L45.7502322,69.6827504 L50.967364,69.6827504 Z M46.9220803,72.1191265 L45.7502322,72.1191265 L45.7502322,76.9918787 L43.3423253,76.9918787 L43.3423253,64.8099982 L51.3686818,64.8099982 C54.0441474,64.8099982 55.3818601,66.0281741 55.3818601,68.4645624 C55.3818601,70.9009506 54.0441474,72.1191265 51.3686818,72.1191265 L50.6222306,72.1191265 L56.2727856,76.9918787 L52.5726353,76.9918787 L46.9220803,72.1191265 Z M62.6055809,67.2463743 L57.7977934,67.2463743 L57.789767,64.8099982 L69.8293018,64.8099982 L69.8293018,67.2463743 L65.0134879,67.2463743 L65.0134879,76.9918787 L62.6055809,76.9918787 L62.6055809,67.2463743 Z M76.250387,72.1191265 C73.5749215,72.1191265 72.2372088,70.9009506 72.2372088,68.4645624 C72.2372088,66.0281741 73.5749215,64.8099982 76.250387,64.8099982 L84.2767436,64.8099982 L84.2767436,67.2463743 L76.6517049,67.2463743 C75.3139721,67.2463743 74.6451157,67.6524329 74.6451157,68.4645624 C74.6451157,69.2766918 75.3139721,69.6827504 76.6517049,69.6827504 L80.2635653,69.6827504 C82.9390309,69.6827504 84.2767436,70.9009263 84.2767436,73.3373146 C84.2767436,75.7737029 82.9390309,76.9918787 80.2635653,76.9918787 L72.2372088,76.9918787 L72.2372088,74.5555026 L79.8622475,74.5555026 C81.1999803,74.5555026 81.8688366,74.149444 81.8688366,73.3373146 C81.8688366,72.5251851 81.1999803,72.1191265 79.8622475,72.1191265 L76.250387,72.1191265 Z M90.6978288,67.2463743 L90.6978288,64.8099982 L98.7241853,64.8099982 C101.399651,64.8099982 102.737364,66.1635269 102.737364,68.870625 L102.737364,72.9312519 C102.737364,75.63835 101.399651,76.9918787 98.7241853,76.9918787 L90.6978288,76.9918787 L90.6978288,74.5555026 L98.3870784,74.5555026 C99.6713018,74.5555026 100.313404,73.91393 100.313404,72.6307655 L100.313404,69.1629902 C100.313404,67.8852399 99.6739772,67.2463743 98.3951047,67.2463743 L90.6978288,67.2463743 Z M107.906337,74.5555026 L106.862911,76.9918787 L104.238292,76.9918787 L109.46345,64.8099982 L112.080043,64.8099982 L117.305201,76.9918787 L114.688608,76.9918787 L113.645182,74.5555026 L107.906337,74.5555026 Z M112.593729,72.1191265 L110.771746,67.8717108 L108.949764,72.1191265 L112.593729,72.1191265 Z M123.605891,67.2463743 L118.798103,67.2463743 L118.790077,64.8099982 L130.829611,64.8099982 L130.829611,67.2463743 L126.013798,67.2463743 L126.013798,76.9918787 L123.605891,76.9918787 L123.605891,67.2463743 Z M135.998585,74.5555026 L134.955159,76.9918787 L132.33054,76.9918787 L137.555698,64.8099982 L140.17229,64.8099982 L145.397449,76.9918787 L142.780856,76.9918787 L141.73743,74.5555026 L135.998585,74.5555026 Z M140.685977,72.1191265 L138.863994,67.8717108 L137.042011,72.1191265 L140.685977,72.1191265 Z M154.908681,64.8099982 C157.584147,64.8099982 158.921859,66.0281741 158.921859,68.4645624 C158.921859,69.8181114 158.520546,70.6302287 157.717906,70.9009385 C158.520546,71.1716483 158.921859,71.9837655 158.921859,73.3373146 C158.921859,75.7737029 157.584147,76.9918787 154.908681,76.9918787 L146.882325,76.9918787 L146.882325,64.8099982 L154.908681,64.8099982 Z M154.908681,72.1191265 L149.290231,72.1191265 L149.290231,74.5555026 L154.507363,74.5555026 C155.845096,74.5555026 156.513952,74.149444 156.513952,73.3373146 C156.513952,72.5251851 155.978867,72.1191265 154.908681,72.1191265 Z M154.908681,69.6827504 C155.978867,69.6827504 156.513952,69.2766918 156.513952,68.4645624 C156.513952,67.6524329 155.845096,67.2463743 154.507363,67.2463743 L149.290231,67.2463743 L149.290231,69.6827504 L154.908681,69.6827504 Z M164.090833,74.5555026 L163.047407,76.9918787 L160.422788,76.9918787 L165.647946,64.8099982 L168.264538,64.8099982 L173.489696,76.9918787 L170.873104,76.9918787 L169.829678,74.5555026 L164.090833,74.5555026 Z M168.778225,72.1191265 L166.956242,67.8717108 L165.134259,72.1191265 L168.778225,72.1191265 Z M178.987751,72.1191265 C176.312285,72.1191265 174.974572,70.9009506 174.974572,68.4645624 C174.974572,66.0281741 176.312285,64.8099982 178.987751,64.8099982 L187.014107,64.8099982 L187.014107,67.2463743 L179.389068,67.2463743 C178.051336,67.2463743 177.382479,67.6524329 177.382479,68.4645624 C177.382479,69.2766918 178.051336,69.6827504 179.389068,69.6827504 L183.000929,69.6827504 C185.676394,69.6827504 187.014107,70.9009263 187.014107,73.3373146 C187.014107,75.7737029 185.676394,76.9918787 183.000929,76.9918787 L174.974572,76.9918787 L174.974572,74.5555026 L182.599611,74.5555026 C183.937344,74.5555026 184.6062,74.149444 184.6062,73.3373146 C184.6062,72.5251851 183.937344,72.1191265 182.599611,72.1191265 L178.987751,72.1191265 Z M191.829921,74.5555026 L201.461549,74.5555026 L201.461549,76.9918787 L189.422014,76.9918787 L189.422014,64.8099982 L201.461549,64.8099982 L201.461549,67.2463743 L191.829921,67.2463743 L191.829921,69.6827504 L201.461549,69.6827504 L201.461549,72.1191265 L191.829921,72.1191265 L191.829921,74.5555026 Z" id="Combined-Shape-Copy"></path>
                            </g>
                        </g>
                    </g>
                </g>
            </g>
        </g>
    </g>
</svg>